{
	"asset":{
		"generator":"Khronos glTF Blender I/O v4.0.44",
		"version":"2.0"
	},
	"scene":0,
	"scenes":[
		{
			"name":"Scene",
			"nodes":[
				0,
				1,
				2,
				3,
				4,
				5,
				6,
				7
			]
		}
	],
	"nodes":[
		{
			"mesh":0,
			"name":"Floor.001",
			"rotation":[
				0,
				-0.9999982118606567,
				0,
				0.0019358826102688909
			],
			"translation":[
				0.014841736294329166,
				0,
				0.16663837432861328
			]
		},
		{
			"mesh":1,
			"name":"Pillar.001",
			"rotation":[
				0,
				-0.9999982118606567,
				0,
				0.0019358826102688909
			],
			"scale":[
				0.5000000596046448,
				0.5,
				0.5000000596046448
			],
			"translation":[
				-0.24289989471435547,
				-1.25,
				-1.83237886428833
			]
		},
		{
			"mesh":2,
			"name":"Pillar.002",
			"rotation":[
				0,
				-0.9999982118606567,
				0,
				0.0019358826102688909
			],
			"scale":[
				0.5000000596046448,
				0.5,
				0.5000000596046448
			],
			"translation":[
				0.25322461128234863,
				-1,
				-2.8343071937561035
			]
		},
		{
			"mesh":3,
			"name":"Pillar.004",
			"rotation":[
				0,
				-0.9999982118606567,
				0,
				0.0019358826102688909
			],
			"scale":[
				0.5000000596046448,
				0.5,
				0.5000000596046448
			],
			"translation":[
				-0.25064337253570557,
				-0.75,
				-3.8323638439178467
			]
		},
		{
			"mesh":4,
			"name":"Floor.002",
			"rotation":[
				0,
				-0.9999982118606567,
				0,
				0.0019358826102688909
			],
			"translation":[
				-0.01613232120871544,
				1,
				-7.833301544189453
			]
		},
		{
			"mesh":5,
			"name":"Pillar.003",
			"rotation":[
				0,
				-0.9999982118606567,
				0,
				0.0019358826102688909
			],
			"scale":[
				0.5000000596046448,
				0.5,
				0.5000000596046448
			],
			"translation":[
				0.2416093349456787,
				-0.5,
				-5.834284782409668
			]
		},
		{
			"mesh":6,
			"name":"Player.007"
		},
		{
			"camera":0,
			"name":"Camera",
			"translation":[
				0,
				0.550000011920929,
				-0.09015408903360367
			]
		}
	],
	"cameras":[
		{
			"name":"Camera",
			"perspective":{
				"aspectRatio":1.7777777777777777,
				"yfov":0.39959652046304894,
				"zfar":100,
				"znear":0.10000000149011612
			},
			"type":"perspective"
		}
	],
	"materials":[
		{
			"doubleSided":true,
			"name":"Material.005",
			"pbrMetallicRoughness":{
				"baseColorTexture":{
					"index":0
				},
				"metallicFactor":0,
				"roughnessFactor":0.5
			}
		},
		{
			"doubleSided":true,
			"name":"Material.009",
			"pbrMetallicRoughness":{
				"baseColorTexture":{
					"index":1
				},
				"metallicFactor":0,
				"roughnessFactor":0.5
			}
		}
	],
	"meshes":[
		{
			"name":"Cube.009",
			"primitives":[
				{
					"attributes":{
						"POSITION":0,
						"NORMAL":1,
						"TEXCOORD_0":2
					},
					"indices":3,
					"material":0
				}
			]
		},
		{
			"name":"Cube.010",
			"primitives":[
				{
					"attributes":{
						"POSITION":4,
						"NORMAL":5,
						"TEXCOORD_0":6
					},
					"indices":7,
					"material":1
				}
			]
		},
		{
			"name":"Cube.012",
			"primitives":[
				{
					"attributes":{
						"POSITION":8,
						"NORMAL":9,
						"TEXCOORD_0":10
					},
					"indices":7,
					"material":1
				}
			]
		},
		{
			"name":"Cube.013",
			"primitives":[
				{
					"attributes":{
						"POSITION":11,
						"NORMAL":12,
						"TEXCOORD_0":13
					},
					"indices":7,
					"material":1
				}
			]
		},
		{
			"name":"Cube.019",
			"primitives":[
				{
					"attributes":{
						"POSITION":14,
						"NORMAL":15,
						"TEXCOORD_0":16
					},
					"indices":3,
					"material":1
				}
			]
		},
		{
			"name":"Cube.008",
			"primitives":[
				{
					"attributes":{
						"POSITION":17,
						"NORMAL":18,
						"TEXCOORD_0":19
					},
					"indices":7,
					"material":1
				}
			]
		},
		{
			"name":"Player.008",
			"primitives":[
				{
					"attributes":{
						"POSITION":20,
						"NORMAL":21,
						"TEXCOORD_0":22
					},
					"indices":23,
					"material":1
				}
			]
		}
	],
	"textures":[
		{
			"sampler":0,
			"source":0
		},
		{
			"sampler":0,
			"source":1
		}
	],
	"images":[
		{
			"mimeType":"image/jpeg",
			"name":"green-black_cool",
			"uri":"green-black_cool.jpg"
		},
		{
			"mimeType":"image/png",
			"name":"stone",
			"uri":"stone.png"
		}
	],
	"accessors":[
		{
			"bufferView":0,
			"componentType":5126,
			"count":24,
			"max":[
				0.5,
				-1.4901162970204496e-08,
				1
			],
			"min":[
				-0.5,
				-0.10000002384185791,
				-1
			],
			"type":"VEC3"
		},
		{
			"bufferView":1,
			"componentType":5126,
			"count":24,
			"type":"VEC3"
		},
		{
			"bufferView":2,
			"componentType":5126,
			"count":24,
			"type":"VEC2"
		},
		{
			"bufferView":3,
			"componentType":5123,
			"count":36,
			"type":"SCALAR"
		},
		{
			"bufferView":4,
			"componentType":5126,
			"count":176,
			"max":[
				0.5,
				3,
				0.5000000596046448
			],
			"min":[
				-0.5,
				0,
				-0.4999999403953552
			],
			"type":"VEC3"
		},
		{
			"bufferView":5,
			"componentType":5126,
			"count":176,
			"type":"VEC3"
		},
		{
			"bufferView":6,
			"componentType":5126,
			"count":176,
			"type":"VEC2"
		},
		{
			"bufferView":7,
			"componentType":5123,
			"count":228,
			"type":"SCALAR"
		},
		{
			"bufferView":8,
			"componentType":5126,
			"count":176,
			"max":[
				0.5,
				3,
				0.5000000596046448
			],
			"min":[
				-0.5,
				0,
				-0.4999999403953552
			],
			"type":"VEC3"
		},
		{
			"bufferView":9,
			"componentType":5126,
			"count":176,
			"type":"VEC3"
		},
		{
			"bufferView":10,
			"componentType":5126,
			"count":176,
			"type":"VEC2"
		},
		{
			"bufferView":11,
			"componentType":5126,
			"count":176,
			"max":[
				0.5,
				3,
				0.5000000596046448
			],
			"min":[
				-0.5,
				0,
				-0.4999999403953552
			],
			"type":"VEC3"
		},
		{
			"bufferView":12,
			"componentType":5126,
			"count":176,
			"type":"VEC3"
		},
		{
			"bufferView":13,
			"componentType":5126,
			"count":176,
			"type":"VEC2"
		},
		{
			"bufferView":14,
			"componentType":5126,
			"count":24,
			"max":[
				0.5,
				-1.4901162970204496e-08,
				1
			],
			"min":[
				-0.5,
				-0.10000002384185791,
				-1
			],
			"type":"VEC3"
		},
		{
			"bufferView":15,
			"componentType":5126,
			"count":24,
			"type":"VEC3"
		},
		{
			"bufferView":16,
			"componentType":5126,
			"count":24,
			"type":"VEC2"
		},
		{
			"bufferView":17,
			"componentType":5126,
			"count":176,
			"max":[
				0.5,
				3,
				0.5000000596046448
			],
			"min":[
				-0.5,
				0,
				-0.4999999403953552
			],
			"type":"VEC3"
		},
		{
			"bufferView":18,
			"componentType":5126,
			"count":176,
			"type":"VEC3"
		},
		{
			"bufferView":19,
			"componentType":5126,
			"count":176,
			"type":"VEC2"
		},
		{
			"bufferView":20,
			"componentType":5126,
			"count":7174,
			"max":[
				0.2383190244436264,
				0.4991611838340759,
				0.10195577889680862
			],
			"min":[
				-0.23768097162246704,
				-0.000838833162561059,
				-0.10204422473907471
			],
			"type":"VEC3"
		},
		{
			"bufferView":21,
			"componentType":5126,
			"count":7174,
			"type":"VEC3"
		},
		{
			"bufferView":22,
			"componentType":5126,
			"count":7174,
			"type":"VEC2"
		},
		{
			"bufferView":23,
			"componentType":5123,
			"count":9438,
			"type":"SCALAR"
		}
	],
	"bufferViews":[
		{
			"buffer":0,
			"byteLength":288,
			"byteOffset":0,
			"target":34962
		},
		{
			"buffer":0,
			"byteLength":288,
			"byteOffset":288,
			"target":34962
		},
		{
			"buffer":0,
			"byteLength":192,
			"byteOffset":576,
			"target":34962
		},
		{
			"buffer":0,
			"byteLength":72,
			"byteOffset":768,
			"target":34963
		},
		{
			"buffer":0,
			"byteLength":2112,
			"byteOffset":840,
			"target":34962
		},
		{
			"buffer":0,
			"byteLength":2112,
			"byteOffset":2952,
			"target":34962
		},
		{
			"buffer":0,
			"byteLength":1408,
			"byteOffset":5064,
			"target":34962
		},
		{
			"buffer":0,
			"byteLength":456,
			"byteOffset":6472,
			"target":34963
		},
		{
			"buffer":0,
			"byteLength":2112,
			"byteOffset":6928,
			"target":34962
		},
		{
			"buffer":0,
			"byteLength":2112,
			"byteOffset":9040,
			"target":34962
		},
		{
			"buffer":0,
			"byteLength":1408,
			"byteOffset":11152,
			"target":34962
		},
		{
			"buffer":0,
			"byteLength":2112,
			"byteOffset":12560,
			"target":34962
		},
		{
			"buffer":0,
			"byteLength":2112,
			"byteOffset":14672,
			"target":34962
		},
		{
			"buffer":0,
			"byteLength":1408,
			"byteOffset":16784,
			"target":34962
		},
		{
			"buffer":0,
			"byteLength":288,
			"byteOffset":18192,
			"target":34962
		},
		{
			"buffer":0,
			"byteLength":288,
			"byteOffset":18480,
			"target":34962
		},
		{
			"buffer":0,
			"byteLength":192,
			"byteOffset":18768,
			"target":34962
		},
		{
			"buffer":0,
			"byteLength":2112,
			"byteOffset":18960,
			"target":34962
		},
		{
			"buffer":0,
			"byteLength":2112,
			"byteOffset":21072,
			"target":34962
		},
		{
			"buffer":0,
			"byteLength":1408,
			"byteOffset":23184,
			"target":34962
		},
		{
			"buffer":0,
			"byteLength":86088,
			"byteOffset":24592,
			"target":34962
		},
		{
			"buffer":0,
			"byteLength":86088,
			"byteOffset":110680,
			"target":34962
		},
		{
			"buffer":0,
			"byteLength":57392,
			"byteOffset":196768,
			"target":34962
		},
		{
			"buffer":0,
			"byteLength":18876,
			"byteOffset":254160,
			"target":34963
		}
	],
	"samplers":[
		{
			"magFilter":9729,
			"minFilter":9987
		}
	],
	"buffers":[
		{
			"byteLength":273036,
			"uri":"platform.bin"
		}
	]
}
