{
	"asset":{
		"generator":"Khronos glTF Blender I/O v4.0.44",
		"version":"2.0"
	},
	"scene":0,
	"scenes":[
		{
			"name":"Scene",
			"nodes":[
				0,
				1
			]
		}
	],
	"nodes":[
		{
			"camera":0,
			"name":"Camera",
			"rotation":[
				-0.22658836841583252,
				0.13187755644321442,
				0.03098100610077381,
				0.9645239114761353
			],
			"translation":[
				6.616647243499756,
				14.079517364501953,
				23.824499130249023
			]
		},
		{
			"mesh":0,
			"name":"Player",
			"scale":[
				0.3154386579990387,
				0.9999959468841553,
				0.30000001192092896
			],
			"translation":[
				0,
				0.3953426480293274,
				0
			]
		}
	],
	"cameras":[
		{
			"name":"Camera",
			"perspective":{
				"aspectRatio":1.7777777777777777,
				"yfov":0.48301205039024353,
				"zfar":100,
				"znear":0.10000000149011612
			},
			"type":"perspective"
		}
	],
	"materials":[
		{
			"doubleSided":true,
			"name":"Material.002",
			"pbrMetallicRoughness":{
				"baseColorTexture":{
					"index":0
				},
				"metallicFactor":0,
				"roughnessFactor":0.5
			}
		}
	],
	"meshes":[
		{
			"name":"Player",
			"primitives":[
				{
					"attributes":{
						"POSITION":0,
						"NORMAL":1,
						"TEXCOORD_0":2
					},
					"indices":3,
					"material":0
				}
			]
		}
	],
	"textures":[
		{
			"sampler":0,
			"source":0
		}
	],
	"images":[
		{
			"mimeType":"image/jpeg",
			"name":"green-black_cool",
			"uri":"green-black_cool.jpg"
		}
	],
	"accessors":[
		{
			"bufferView":0,
			"componentType":5126,
			"count":6562,
			"max":[
				0.47552841901779175,
				0.9226441383361816,
				1.1670277118682861
			],
			"min":[
				-0.4755282998085022,
				-0.10000000149011612,
				-1.1670277118682861
			],
			"type":"VEC3"
		},
		{
			"bufferView":1,
			"componentType":5126,
			"count":6562,
			"type":"VEC3"
		},
		{
			"bufferView":2,
			"componentType":5126,
			"count":6562,
			"type":"VEC2"
		},
		{
			"bufferView":3,
			"componentType":5123,
			"count":9438,
			"type":"SCALAR"
		}
	],
	"bufferViews":[
		{
			"buffer":0,
			"byteLength":78744,
			"byteOffset":0,
			"target":34962
		},
		{
			"buffer":0,
			"byteLength":78744,
			"byteOffset":78744,
			"target":34962
		},
		{
			"buffer":0,
			"byteLength":52496,
			"byteOffset":157488,
			"target":34962
		},
		{
			"buffer":0,
			"byteLength":18876,
			"byteOffset":209984,
			"target":34963
		}
	],
	"samplers":[
		{
			"magFilter":9729,
			"minFilter":9987
		}
	],
	"buffers":[
		{
			"byteLength":228860,
			"uri":"player.bin"
		}
	]
}
